<svg id="Layer_1" data-name="Layer 1" xmlns="http://www.w3.org/2000/svg" xmlns:xlink="http://www.w3.org/1999/xlink" viewBox="0 0 8368.96 2792.31"><defs><style>.cls-1{fill:#2a6171;}.cls-2{fill:url(#linear-gradient);}</style><linearGradient id="linear-gradient" x1="1535.01" y1="2080.42" x2="3035.48" y2="886.01" gradientUnits="userSpaceOnUse"><stop offset="0" stop-color="#fff" stop-opacity="0"/><stop offset="0.24" stop-color="#fdfefe" stop-opacity="0.01"/><stop offset="0.38" stop-color="#f7fcfc" stop-opacity="0.05"/><stop offset="0.51" stop-color="#eef8f7" stop-opacity="0.13"/><stop offset="0.61" stop-color="#dff3f1" stop-opacity="0.23"/><stop offset="0.71" stop-color="#cdece9" stop-opacity="0.36"/><stop offset="0.81" stop-color="#b7e3e0" stop-opacity="0.52"/><stop offset="0.9" stop-color="#9cd9d4" stop-opacity="0.72"/><stop offset="0.98" stop-color="#7ecec7" stop-opacity="0.93"/><stop offset="1" stop-color="#75cac3"/></linearGradient></defs><path class="cls-1" d="M3241.93,1589.76l67-150.41c83.4,67,215.94,114.65,344,114.65,162.35,0,230.83-58.07,230.83-135.49,0-224.88-619.5-77.45-619.5-464.64,0-168.31,134-311.26,419.95-311.26,125.11,0,256.15,32.75,347,92.33l-61.05,150.41c-93.81-55.09-196.58-81.89-287.41-81.89-160.84,0-226.38,62.53-226.38,141.47,0,221.87,618,77.42,618,460.17,0,166.8-135.52,309.75-421.45,309.75C3490.63,1714.85,3328.31,1664.23,3241.93,1589.76Z" transform="translate(-95.9 -49.15)"/><path class="cls-1" d="M4248.69,594.94h186.17V1700H4248.69Z" transform="translate(-95.9 -49.15)"/><path class="cls-1" d="M5344.78,1233.84V1700H5169v-96.81c-44.69,68.51-131,107.25-250.2,107.25-181.69,0-296.34-99.79-296.34-238.29,0-132.55,89.36-236.79,330.6-236.79h205.51v-11.91c0-108.73-65.51-172.76-198-172.76-89.36,0-181.69,29.78-241.27,78.95l-73-135.52c84.88-65.54,208.49-98.29,336.55-98.29C5212.23,895.79,5344.78,1004.49,5344.78,1233.84Zm-186.17,217.42v-92.33h-192.1c-126.59,0-160.84,47.64-160.84,105.75,0,67,56.6,110.19,151.91,110.19C5048.41,1574.87,5127.33,1533.16,5158.61,1451.26Z" transform="translate(-95.9 -49.15)"/><path class="cls-1" d="M5492.27,1621l71.49-141.48c70,46.17,177.21,78.92,277,78.92,117.66,0,166.8-32.75,166.8-87.85,0-151.91-491.44-9-491.44-326.14,0-150.41,135.52-248.7,350-248.7,105.75,0,226.38,25.29,297.84,68.48l-71.46,141.48c-76-44.66-151.91-59.55-227.85-59.55-113.18,0-166.8,37.23-166.8,89.36,0,160.81,491.44,17.86,491.44,329.12,0,148.9-137,245.72-360.4,245.72C5696.27,1710.4,5563.76,1671.66,5492.27,1621Z" transform="translate(-95.9 -49.15)"/><path class="cls-1" d="M7294.27,657.5V1700h-193.6V1253.18H6561.59V1700H6368V657.5h193.63v430.39h539.08V657.5Z" transform="translate(-95.9 -49.15)"/><path class="cls-1" d="M8256.36,1700l-213-305.3c-13.42,1.5-26.8,1.5-40.21,1.5H7767.87V1700h-193.6V657.5h428.92c274,0,443.81,140,443.81,370.81,0,157.86-80.44,274-221.91,329.12L8464.87,1700ZM7994.25,821.32H7767.87v415.5h226.38c169.78,0,257.63-77.44,257.63-208.51S8164,821.32,7994.25,821.32Z" transform="translate(-95.9 -49.15)"/><path class="cls-1" d="M3429.57,2253.15v39H3241.93V2041.89h182.66v39h-136.2v65.06H3409.2v38.24H3288.39v69Z" transform="translate(-95.9 -49.15)"/><path class="cls-1" d="M3728,2041.89l-109,250.22h-45.76l-109.4-250.22h50.41l83.28,193,84-193Z" transform="translate(-95.9 -49.15)"/><path class="cls-1" d="M3963.47,2253.15v39H3775.82V2041.89h182.66v39h-136.2v65.06H3943.1v38.24H3822.28v69Z" transform="translate(-95.9 -49.15)"/><path class="cls-1" d="M4200.4,2292.11l-51.12-73.28a86.2,86.2,0,0,1-9.64.36h-56.48v72.92H4036.7V2041.89h102.94c65.77,0,106.52,33.59,106.52,89,0,37.9-19.31,65.77-53.28,79l57.58,82.22Zm-62.91-210.91h-54.33v99.74h54.33c40.74,0,61.85-18.59,61.85-50.05S4178.23,2081.2,4137.49,2081.2Z" transform="translate(-95.9 -49.15)"/><path class="cls-1" d="M4423.75,2203.81v88.3h-46.46v-87.58L4279,2041.89h49.67L4402,2163.78l74-121.89h45.75Z" transform="translate(-95.9 -49.15)"/><path class="cls-1" d="M4544.85,2167c0-74,57.19-128.68,134.79-128.68s134.75,54.33,134.75,128.68-57.19,128.68-134.75,128.68S4544.85,2241,4544.85,2167Zm222.7,0c0-51.1-37.53-87.92-87.91-87.92s-87.94,36.82-87.94,87.92,37.53,87.94,87.94,87.94S4767.55,2218.11,4767.55,2167Z" transform="translate(-95.9 -49.15)"/><path class="cls-1" d="M5107.4,2041.89v250.22h-38.24l-138-169.43v169.43h-46.11V2041.89h38.23l138,169.44V2041.89Z" transform="translate(-95.9 -49.15)"/><path class="cls-1" d="M5383.63,2253.15v39H5196V2041.89h182.66v39h-136.2v65.06h120.81v38.24H5242.45v69Z" transform="translate(-95.9 -49.15)"/><path class="cls-1" d="M5799.25,2041.89v250.22h-46.46V2184.87H5623.4v107.24h-46.46V2041.89h46.46v103.3h129.39v-103.3Z" transform="translate(-95.9 -49.15)"/><path class="cls-1" d="M6050.13,2234.21H5925l-24.67,57.9h-47.91l112.62-250.22h45.75l112.94,250.22h-48.61Zm-15.39-36.47-47.17-109.37-46.84,109.37Z" transform="translate(-95.9 -49.15)"/><path class="cls-1" d="M6155.85,2265.66l16.09-36.11c20,16.1,51.83,27.53,82.58,27.53,38.94,0,55.39-13.94,55.39-32.53,0-54-148.7-18.59-148.7-111.52,0-40.41,32.19-74.72,100.83-74.72,30,0,61.46,7.87,83.28,22.17l-14.65,36.1c-22.53-13.22-47.2-19.65-69-19.65-38.59,0-54.33,15-54.33,34,0,53.25,148.35,18.58,148.35,110.44,0,40-32.52,74.35-101.15,74.35C6215.54,2295.67,6176.6,2283.53,6155.85,2265.66Z" transform="translate(-95.9 -49.15)"/><path class="cls-1" d="M6705.48,2234.21H6580.4l-24.68,57.9h-47.91l112.62-250.22h45.75l112.94,250.22h-48.61Zm-15.36-36.47L6643,2088.37l-46.84,109.37Z" transform="translate(-95.9 -49.15)"/><path class="cls-1" d="M7003.18,2081.2h-83v-39.31h212.35v39.31h-82.93v210.91h-46.46Z" transform="translate(-95.9 -49.15)"/><path class="cls-1" d="M7338.72,2234.21H7213.64l-24.68,57.9h-47.9l112.61-250.22h45.76l112.94,250.22h-48.62Zm-15.36-36.47-47.16-109.37-46.85,109.37Z" transform="translate(-95.9 -49.15)"/><path class="cls-1" d="M7465.58,2041.89H7512v210.89h130.83v39.33H7465.58Z" transform="translate(-95.9 -49.15)"/><path class="cls-1" d="M7888.71,2253.15v39H7701.07V2041.89h182.66v39h-136.2v65.06h120.81v38.24H7747.53v69Z" transform="translate(-95.9 -49.15)"/><path class="cls-1" d="M8184.28,2041.89v250.22h-38.23l-138-169.43v169.43H7962V2041.89h38.24l138,169.44V2041.89Z" transform="translate(-95.9 -49.15)"/><path class="cls-1" d="M8323.61,2081.2h-82.9v-39.31H8453v39.31H8370.1v210.91h-46.49Z" transform="translate(-95.9 -49.15)"/><path class="cls-1" d="M2107.11,708.05,1870.54,962.63l225.35-267.35.67-.2c-109.68-36.39-230.5-55.56-362.94-56.79q-85.14-3.24-176.75,55.64-111.3,68.73-134.19,183.29-32.73,160.37,212.75,297.83c2.75,1.57,5.4,3.13,8.1,4.68l2.07,1.2-.17.17c13.82,5.62,46.6,32.66,49.41,35l.19-.21c92,63.14,284.29,195.23,329.87,250.46q160.33,189.87,140.73,471.31-19.62,327.33-314.18,576-235.65,199.65-602.23,199.64-199.67,0-409.1-68.71c-43.55-12-99.77-29.83-168.06-53.2l0,0s-114.91,48.34-271.5,139.87c105.73,69.51,231.93,110.17,367.22,110.17H2069.58c369.52,0,671.85-302.33,671.85-671.85V1596.85Z" transform="translate(-95.9 -49.15)"/><path class="cls-1" d="M2741.43,721c0-182.23-73.62-348-192.46-469.37-26.15,26.58-60.34,61.53-99.73,102.26.21.15.48.3.69.45l-322.39,331.3.54-.16-21,22.56,634.32,888.8Z" transform="translate(-95.9 -49.15)"/><path class="cls-1" d="M1302.67,1533.34l-96-55.51q-88.38-52.44-117.83-82c-100.39-109.28-147.11-221.94-150.56-337.76-11.65-392.21,249.83-607.43,324-662q265.1-199.59,579.31-199.64,150.49,0,353.48,55.62c88.6,24.9,157.43,49.79,207.2,74.65l.12-.05c33.53-9.22,93.21-49.45,138.89-82.79C2419.77,123.68,2253,49.15,2069.58,49.15H767.76C398.24,49.15,95.9,351.49,95.9,721v1448.6c0,220.85,108,417.64,273.85,540.29l484.41-440.81h0l71-72.13a1145.06,1145.06,0,0,0,340.47,51.61q160.35,0,271.67-65.63,134.16-81.89,134.19-229.56c0-129.42-172.43-284.87-300.25-365.85l-305.52,329.69,291-338.82-.19-.12,338.35-362.2c-2.81-2.32-35.59-29.36-49.41-35Z" transform="translate(-95.9 -49.15)"/><path class="cls-2" d="M2107.11,708.05,1870.54,962.63l225.35-267.35.67-.2c-109.68-36.39-230.5-55.56-362.94-56.79q-85.14-3.24-176.75,55.64-111.3,68.73-134.19,183.29-32.73,160.37,212.75,297.83c2.75,1.57,5.4,3.13,8.1,4.68l2.07,1.2-.17.17c13.82,5.62,46.6,32.66,49.41,35l.19-.21c92,63.14,284.29,195.23,329.87,250.46q160.33,189.87,140.73,471.31-19.62,327.33-314.18,576-235.65,199.65-602.23,199.64-199.67,0-409.1-68.71c-43.55-12-99.77-29.83-168.06-53.2l0,0s-114.91,48.34-271.5,139.87c105.73,69.51,231.93,110.17,367.22,110.17H2069.58c369.52,0,671.85-302.33,671.85-671.85V1596.85Z" transform="translate(-95.9 -49.15)"/></svg>