<svg id="Layer_1" data-name="Layer 1" xmlns="http://www.w3.org/2000/svg" xmlns:xlink="http://www.w3.org/1999/xlink" viewBox="0 0 2415.74 2549.77"><defs><style>.cls-1{fill:#2a6171;}.cls-2{fill:url(#linear-gradient);}</style><linearGradient id="linear-gradient" x1="1314.1" y1="1854.83" x2="2684.24" y2="764.17" gradientUnits="userSpaceOnUse"><stop offset="0" stop-color="#fff" stop-opacity="0"/><stop offset="0.24" stop-color="#fdfefe" stop-opacity="0.01"/><stop offset="0.38" stop-color="#f7fcfc" stop-opacity="0.05"/><stop offset="0.51" stop-color="#eef8f7" stop-opacity="0.13"/><stop offset="0.61" stop-color="#dff3f1" stop-opacity="0.23"/><stop offset="0.71" stop-color="#cdece9" stop-opacity="0.36"/><stop offset="0.81" stop-color="#b7e3e0" stop-opacity="0.52"/><stop offset="0.9" stop-color="#9cd9d4" stop-opacity="0.72"/><stop offset="0.98" stop-color="#7ecec7" stop-opacity="0.93"/><stop offset="1" stop-color="#75cac3"/></linearGradient></defs><path class="cls-1" d="M1836.52,601.66l-216,232.47L1826.27,590l.61-.19c-100.15-33.23-210.48-50.73-331.41-51.86q-77.76-3-161.4,50.81-101.64,62.76-122.53,167.37-29.89,146.45,194.26,272c2.51,1.44,4.94,2.86,7.4,4.28l1.89,1.09-.15.15c12.61,5.14,42.55,29.83,45.11,32l.18-.19c84,57.65,259.59,178.26,301.21,228.7q146.41,173.39,128.51,430.37-17.92,298.9-286.89,526-215.19,182.31-549.92,182.29-182.33,0-373.57-62.74c-39.77-10.95-91.1-27.23-153.46-48.58l0,0s-104.93,44.14-247.92,127.72a608.73,608.73,0,0,0,335.33,100.6H1802.24c337.42,0,613.5-276.08,613.5-613.5v-523Z"/><path class="cls-1" d="M2415.74,613.5c0-166.4-67.23-317.79-175.75-428.6-23.87,24.27-55.1,56.19-91.07,93.38l.63.4L1855.17,581.21l.49-.15-19.14,20.6,579.22,811.61Z"/><path class="cls-1" d="M1102,1355.27l-87.66-50.69q-80.7-47.89-107.59-74.85C815,1129.94,772.36,1027.07,769.22,921.31,758.57,563.17,997.35,366.64,1065.1,316.8q242.07-182.27,529-182.3,137.43,0,322.77,50.79c80.91,22.74,143.77,45.46,189.21,68.17l.11-.05c30.62-8.41,85.12-45.15,126.82-75.6C2122,68.06,1969.71,0,1802.24,0H613.5C276.07,0,0,276.07,0,613.5V1936.27c0,201.67,98.67,381.37,250.06,493.36l442.33-402.52h0l64.79-65.86a1045.93,1045.93,0,0,0,310.9,47.12q146.42,0,248.07-59.92,122.5-74.79,122.54-209.63c0-118.18-157.45-260.12-274.18-334.07l-279,301,265.74-309.38-.18-.11,309-330.74c-2.56-2.12-32.5-26.81-45.11-32Z"/><path class="cls-2" d="M1836.52,601.66l-216,232.47L1826.27,590l.61-.19c-100.15-33.23-210.48-50.73-331.41-51.86q-77.76-3-161.4,50.81-101.64,62.76-122.53,167.37-29.89,146.45,194.26,272c2.51,1.44,4.94,2.86,7.4,4.28l1.89,1.09-.15.15c12.61,5.14,42.55,29.83,45.11,32l.18-.19c84,57.65,259.59,178.26,301.21,228.7q146.41,173.39,128.51,430.37-17.92,298.9-286.89,526-215.19,182.31-549.92,182.29-182.33,0-373.57-62.74c-39.77-10.95-91.1-27.23-153.46-48.58l0,0s-104.93,44.14-247.92,127.72a608.73,608.73,0,0,0,335.33,100.6H1802.24c337.42,0,613.5-276.08,613.5-613.5v-523Z"/></svg>